<svg width="63" height="63" viewBox="0 0 63 63" xmlns="http://www.w3.org/2000/svg"><title>Logo</title><g fill="none" fill-rule="evenodd"><path d="M.522 31.18C.522 14.058 14.404.178 31.527.178 48.65.177 62.53 14.057 62.53 31.18c0 17.123-13.88 31.004-31.004 31.004C14.404 62.184.523 48.304.523 31.18" fill="#FF6E00"/><path d="M.522 31.18C.522 14.058 14.404.178 31.527.178 48.65.177 62.53 14.057 62.53 31.18c0 17.123-13.88 31.004-31.004 31.004C14.404 62.184.523 48.304.523 31.18z" stroke="#FF6E00" stroke-width=".354"/><path d="M19.47 7.61c-2.604 0-4.72 2.117-4.72 4.72v1.406c-.866-.578-1.91-.907-3.03-.907-3.014 0-5.44 2.453-5.44 5.468 0 3.013 2.426 5.438 5.44 5.438 3.012 0 5.468-2.425 5.467-5.438 0-.77-.148-1.522-.437-2.187v-3.78c0-1.507 1.213-2.72 2.72-2.72h11.374v3.97H24.53c-.957 0-1.75.76-1.75 1.718v5.97c0 .96.793 1.718 1.75 1.718h6.314v2.75H24.53c-.905 0-1.64.678-1.718 1.562-.003.05-.03.104-.03.156V45.33H16.75V27.453c0-.052.005-.103 0-.156-.08-.885-.843-1.562-1.75-1.562H6.72v21.562h2V27.704h5.53c.275 0 .5.227.5.5V45.33h-4.313v1.968h22.376V33.704c0-.163.147-.28.312-.28h1.125c.164 0 .313.117.313.28v13.594h10V33.704c0-.163.147-.28.312-.28H46c.165 0 .312.117.313.28v13.594h10.03V27.454c0-.052-.026-.103-.03-.156-.08-.885-.813-1.562-1.72-1.562h-20.03v1.968h19.28c.274 0 .5.227.5.5V45.33h-6.062V33.172c0-.96-.76-1.75-1.718-1.75h-2.25c-.958 0-1.718.79-1.718 1.75V45.33H36.53V33.172c0-.96-.76-1.75-1.718-1.75h-2.25c-.958 0-1.718.79-1.718 1.75V45.33H24.78V28.203c0-.273.227-.5.5-.5h7.532v-6.686h-7.718c-.165 0-.313-.15-.313-.314V15.86c0-.164.15-.312.314-.312h7.718V7.61H19.47zM11.72 14.8c1.917 0 3.5 1.58 3.5 3.5 0 1.918-1.582 3.47-3.5 3.47-1.92 0-3.47-1.552-3.47-3.47 0-1.92 1.55-3.5 3.47-3.5z" fill="#FFF"/><path d="M8.26 18.283c0-1.92 1.556-3.472 3.474-3.472 1.918 0 3.472 1.554 3.472 3.473 0 1.918-1.553 3.47-3.472 3.47-1.918 0-3.473-1.552-3.473-3.47zm-1.982 0c0-3.015 2.443-5.457 5.456-5.457 3.014 0 5.457 2.442 5.457 5.457 0 3.013-2.443 5.456-5.456 5.456-3.013 0-5.456-2.444-5.456-5.457z" fill="#231F20"/><path d="M11.742 23.923c-3.108 0-5.625-2.517-5.625-5.625 0-3.11 2.517-5.664 5.625-5.664 3.11 0 5.625 2.554 5.625 5.664 0 3.108-2.515 5.625-5.625 5.625z" fill="#231F20"/><path d="M11.742 21.58c1.823 0 3.28-1.46 3.28-3.282 0-1.823-1.457-3.32-3.28-3.32-1.822 0-3.32 1.497-3.32 3.32 0 1.822 1.498 3.28 3.32 3.28z" fill="#FF6E00"/></g></svg>